HIERARCHY
ROOT Hips
{
  OFFSET -35.4901 99.2528 17.4586
  CHANNELS 6 Xposition Yposition Zposition Zrotation Xrotation Yrotation
  JOINT LeftUpLeg
  {
    OFFSET 8.64259 1.95398 -2.38835
    CHANNELS 3 Zrotation Xrotation Yrotation
    JOINT LeftLeg
    {
      OFFSET 43.7702 0 0
      CHANNELS 3 Zrotation Xrotation Yrotation
      JOINT LeftFoot
      {
        OFFSET 40.6238 0 0
        CHANNELS 3 Zrotation Xrotation Yrotation
        JOINT LeftToeBase
        {
          OFFSET 12.7242 0 0
          CHANNELS 3 Zrotation Xrotation Yrotation
          End Site
          {
            OFFSET 0 0 0
          }
        }
      }
    }
  }
  JOINT RightUpLeg
  {
    OFFSET -8.2249 1.95398 -2.59336
    CHANNELS 3 Zrotation Xrotation Yrotation
    JOINT RightLeg
    {
      OFFSET 43.5653 0 0
      CHANNELS 3 Zrotation Xrotation Yrotation
      JOINT RightFoot
      {
        OFFSET 40.6238 0 0
        CHANNELS 3 Zrotation Xrotation Yrotation
        JOINT RightToeBase
        {
          OFFSET 12.7242 0 0
          CHANNELS 3 Zrotation Xrotation Yrotation
          End Site
          {
            OFFSET 0 0 0
          }
        }
      }
    }
  }
  JOINT Spine
  {
    OFFSET 0.165834 0.87714 6.61349
    CHANNELS 3 Zrotation Xrotation Yrotation
    JOINT Spine1
    {
      OFFSET 7.38963 1.71661e-005 0
      CHANNELS 3 Zrotation Xrotation Yrotation
      JOINT Spine2
      {
        OFFSET 11.9445 1.14441e-005 0
        CHANNELS 3 Zrotation Xrotation Yrotation
        JOINT Spine3
        {
          OFFSET 14.7254 4.19617e-005 0
          CHANNELS 3 Zrotation Xrotation Yrotation
          JOINT Spine4
          {
            OFFSET 10.9679 0 0
            CHANNELS 3 Zrotation Xrotation Yrotation
            JOINT RightShoulder
            {
              OFFSET 2.46616 -1.6653 3.69651
              CHANNELS 3 Zrotation Xrotation Yrotation
              JOINT RightArm
              {
                OFFSET 13.0012 0 0
                CHANNELS 3 Zrotation Xrotation Yrotation
                JOINT RightForeArm
                {
                  OFFSET 28.7848 1.52588e-005 0
                  CHANNELS 3 Zrotation Xrotation Yrotation
                  JOINT RightHand
                  {
                    OFFSET 26.5688 1.52588e-005 0
                    CHANNELS 3 Zrotation Xrotation Yrotation
                    End Site
                    {
                      OFFSET 0 0 0
                    }
                  }
                }
              }
            }
            JOINT LeftShoulder
            {
              OFFSET 2.38034 -1.29275 -3.7523
              CHANNELS 3 Zrotation Xrotation Yrotation
              JOINT LeftArm
              {
                OFFSET 16.3182 6.10351e-005 0
                CHANNELS 3 Zrotation Xrotation Yrotation
                JOINT LeftForeArm
                {
                  OFFSET 27.0901 0 0
                  CHANNELS 3 Zrotation Xrotation Yrotation
                  JOINT LeftHand
                  {
                    OFFSET 24.5451 1.52588e-005 0
                    CHANNELS 3 Zrotation Xrotation Yrotation
                    End Site
                    {
                      OFFSET 0 0 0
                    }
                  }
                }
              }
            }
            JOINT Neck
            {
              OFFSET 5.0226 -0.0266342 0
              CHANNELS 3 Zrotation Xrotation Yrotation
              JOINT Head
              {
                OFFSET 6.69364 2.86102e-005 0
                CHANNELS 3 Zrotation Xrotation Yrotation
                End Site
                {
                  OFFSET 0 0 0
                }
              }
            }
          }
        }
      }
    }
  }
}
MOTION
Frames:	10
Frame Time:	0.0416667
-276.679 90.8377 260.926 112.435 57.8048 76.4941 -156.509 -33.5736 113.689 -6.62293 29.5678 0.339585 78.693 8.92677 -1.75431 28.4432 -1.09958 1.88156 169.713 11.6026 92.6252 -29.7044 -1.30439 2.93886 71.161 0.599663 2.03169 18.4384 0.382306 0.433334 -1.79952 8.18754 -90.588 10.4882 -3.85432 -0.826233 -1.17719 -3.88693 -0.655565 -23.7484 -3.42766 -1.9476 -3.73574 -3.42765 -1.9476 90.1789 -30.2802 -106.299 36.846 8.18958 -7.97079 -11.5998 -13.5572 -63.1375 -12.7203 1.17963 -21.2259 -85.8385 -48.7995 84.7995 -31.1306 4.62213 -19.4834 -68.938 -29.7158 -78.6167 33.1681 -16.0224 -51.5537 5.23217 -0.217235 -6.68381 -5.18366 0.985744 1.28771 
-271.469 91.3453 254.84 109.855 51.3782 78.4576 -167.53 -33.5474 101.122 -18.5022 19.568 2.71375 56.6221 2.02238 1.15235 32.187 3.7077 -7.52398 168.599 9.79706 90.9147 -35.5179 -9.83192 4.16287 75.671 -5.4363 -0.457223 14.6509 -0.304625 2.1631 -1.02977 8.0685 -90.5612 10.7278 -2.30922 -0.903264 -0.94142 -2.34676 -0.800722 -23.4859 -1.93102 -1.55566 -3.47329 -1.93102 -1.55567 90.0488 -29.1992 -106.972 37.9369 8.11212 -6.85276 -12.4817 -14.7825 -63.4825 -13.3199 1.15989 -20.6805 -86.0752 -48.6203 84.4103 -31.0462 9.97476 -16.2746 -14.2191 -16.405 -56.6785 4.32892 -0.0948694 -19.0658 4.92844 -0.0173404 -4.86039 -4.99699 0.846156 0.868286 
-266.895 92.5628 250.061 103.954 43.9435 84.2602 -169.015 -5.38094 99.3113 -54.6286 12.9847 2.44775 61.0029 1.86491 0.0702616 12.6406 1.5451 -0.54136 170.992 5.61402 92.7914 -30.4016 -15.9454 2.16428 76.2959 -7.55439 -2.29188 16.9039 0.561357 0.243876 0.138878 7.84513 -90.6619 11.1815 -0.0312013 -1.31482 -0.49006 -0.0890588 -1.31218 -23.0203 0.365365 -1.26342 -3.00769 0.365338 -1.26343 89.7488 -28.6143 -107.807 39.0093 8.91371 -7.90539 -14.2927 -16.8184 -64.1491 -13.265 1.04923 -20.5828 -85.6735 -49.4198 85.1412 -28.4344 12.1409 -17.5188 -15.445 -18.8215 -54.895 0.639315 -0.209804 -13.0194 3.55274 -0.0825556 -2.75076 -3.94224 0.373054 0.81403 
-262.254 94.1937 247.724 99.0268 35.9073 89.091 -166.418 11.7258 98.6536 -58.6595 4.4439 -1.47389 70.7575 5.49145 0.983137 14.7993 0.22815 0.823734 176.122 1.6163 96.1918 -22.3635 -17.093 -1.6904 74.4997 -7.03551 -0.294828 17.5872 0.238528 0.824647 1.47312 7.59429 -90.736 11.7046 2.58474 -1.73824 0.0347624 2.50576 -1.85033 -22.5169 2.98754 -0.880664 -2.5042 2.98753 -0.880661 89.995 -28.7015 -107.273 39.7029 7.86185 -9.71763 -11.577 -13.4037 -61.4549 -14.7354 1.31232 -19.8629 -85.4918 -49.3212 85.4037 -28.26 10.4568 -18.1291 -13.8837 -17.7055 -55.1261 -3.51018 -0.054569 -10.7975 1.45823 -0.291003 -0.225723 -3.50723 -0.240079 -0.619634 
-256.94 94.7724 243.561 96.5977 30.3344 90.3788 -169.063 21.6566 98.6897 -40.963 -8.5542 -5.25195 72.2999 5.15879 -4.85755 14.2443 -3.45396 5.57417 177.757 -4.32374 95.9781 -16.1607 -19.3773 -4.32891 74.8371 -7.10593 1.76554 18.8967 0.129391 0.915221 2.276 7.53685 -90.6761 11.8386 4.20824 -1.79674 0.172954 4.12512 -1.98045 -22.4158 4.55333 -0.446575 -2.40314 4.55334 -0.446578 90.2446 -26.6821 -107.586 40.6841 5.74973 -11.7595 -10.869 -13.0482 -61.7652 -15.0371 1.33778 -19.4881 -85.1002 -50.593 86.1663 -26.0311 8.42991 -18.2647 -12.0927 -15.912 -56.1678 -5.36248 0.0333589 -9.1138 2.27002 0.206757 3.2342 -2.98763 -0.304568 -0.68027 
-250.873 93.6328 236.509 97.0335 27.9441 88.0317 -174.959 18.4245 97.227 -10.4695 -9.94038 -4.35602 65.0197 2.85144 -2.18945 19.7415 -2.7222 4.59312 173.137 -11.0197 89.6522 -15.5034 -26.5377 -4.76056 80.2241 -9.78551 1.00109 19.5597 1.19532 -1.44667 2.57007 7.72981 -90.3901 11.4491 4.93147 -1.27798 -0.213376 4.87044 -1.49426 -22.8239 5.08698 0.267053 -2.81123 5.08698 0.267049 88.8233 -28.4163 -109.763 36.6725 3.55786 -13.1775 -9.53068 -9.59876 -62.7767 -14.6193 1.46393 -20.0786 -84.7381 -51.4848 86.8076 -22.0604 8.40326 -17.1042 -17.7235 -17.3645 -61.4026 -4.48447 0.0443656 -11.622 3.26303 0.543328 4.67756 -2.96656 -0.246973 -0.26016 
-243.639 91.5603 228.576 99.5535 26.0719 83.363 -177.272 16.5005 93.8257 -6.76794 -13.4183 -3.4093 62.7956 1.9097 -2.85652 14.6484 -2.58125 4.41284 166.254 -16.7063 79.5175 -19.9293 -32.9734 -5.65643 85.1099 -12.9438 -0.271506 23.8082 0.841714 -1.51953 2.58369 8.07569 -90.124 10.7507 5.088 -0.712087 -0.91055 5.05171 -0.935894 -23.5252 5.06615 0.854044 -3.51257 5.06614 0.854038 88.6468 -27.1027 -110.698 36.1577 2.63879 -15.2199 -10.9756 -12.0912 -62.3593 -15.0716 1.39755 -19.832 -83.537 -56.1005 89.0602 -20.9357 4.55076 -17.0502 -15.8602 -15.5524 -62.9799 -5.46326 0.0732822 -10.4616 3.19492 1.13598 7.6331 -1.9284 -0.153718 -1.51156 
-235.729 91.3975 219.875 99.1763 27.2846 81.4735 -174.145 18.529 90.3509 -19.359 -3.46606 -5.59637 59.8961 0.79583 -2.04178 9.1553 -2.84589 4.74431 167.002 -17.1798 77.8364 -30.1746 -29.0788 -10.0986 73.3397 -6.96813 -2.87876 43.508 -2.08303 6.38746 2.29147 7.87341 -89.6917 11.1316 4.70414 0.153396 -0.530768 4.7063 -0.0542583 -23.129 4.44009 1.56291 -3.11634 4.4401 1.56291 88.286 -29.3969 -110.404 37.9871 2.60317 -14.2518 -12.3368 -13.1419 -62.0208 -13.8602 1.17506 -19.7845 -84.4873 -52.3926 87.2907 -27.0488 1.09743 -12.9536 -13.5569 -13.9847 -63.7303 -6.38018 0.108941 -10.0625 4.43909 0.703006 2.01576 -3.11068 0.320203 1.25735 
-228.606 92.1737 212.253 98.1481 30.5348 80.9914 -172.724 18.3236 87.5726 -29.1816 1.62664 -6.52629 67.3366 3.73581 0.637803 11.9824 -0.0527351 1.32461 175.703 -5.68156 81.3534 -54.3429 -21.5248 -9.92151 56.2822 1.04875 0.338866 23.7873 -1.90125 5.1776 1.61339 7.65688 -89.6175 11.558 3.38881 0.413445 -0.108545 3.40376 0.263716 -22.6742 3.10775 1.41375 -2.66157 3.10776 1.41374 88.7116 -27.5738 -110.356 40.2876 2.30591 -11.7891 -11.3292 -12.2745 -62.1521 -16.0797 1.2998 -18.0911 -84.2781 -52.7712 87.647 -27.5017 1.45391 -10.4314 -12.5303 -13.3841 -63.757 -4.3775 0.00589686 -9.87535 5.91568 0.880257 2.52597 -4.21005 0.40014 -0.859232 
-222.221 93.1972 205.788 98.0701 30.6239 81.9005 -174.377 13.5563 86.7352 -31.9588 0.136921 -6.37431 74.2766 6.00948 0.596264 12.1386 -0.288615 1.60767 -177.716 6.97392 84.9415 -67.0913 -21.1171 -7.48283 62.6201 -2.10447 -2.13754 25.0471 -2.48795 6.62849 1.1467 7.67752 -89.7376 11.518 2.4042 0.276673 -0.150699 2.41405 0.170526 -22.7013 2.20985 0.98678 -2.6886 2.20983 0.986776 89.1788 -27.1719 -109.586 39.6066 2.32799 -12.3947 -12.3105 -13.3302 -59.9593 -13.2786 1.24575 -21.3555 -84.1573 -51.6628 87.7007 -27.2123 4.36885 -11.1721 -14.4091 -14.4837 -64.0109 -4.43763 0.0263219 -10.7055 5.88883 1.33274 0.748295 -4.32928 1.17534 -0.822351 
